<svg version="1.1" class="airplane-insurance icon-svg" xmlns="http://www.w3.org/2000/svg" xmlns:xlink="http://www.w3.org/1999/xlink" x="0px" y="0px" viewBox="0 0 192 192" enable-background="new 0 0 192 192" xml:space="preserve">
  <path d="M166.2,95C166.2,94,166.2,95,166.2,95L166.2,95c0-5-9.2-9-14.2-9l-36.9,1.3c-1.5-2-34.3-63.3-34.3-63.3H68.8l21.5,64.3
      l-42.3,1.5L34,70h-8.2c0,0,9.3,20.6,9.3,25.5S25.8,121,25.8,121H34l14-20.2l42.3,2.1L68.8,168h12.1c0,0,32.8-62.5,34.3-64.5
      l36.9,0.6C157,104.1,166.2,101,166.2,95L166.2,95L166.2,95z"></path>
</svg>
