<svg width="48px" height="48px" viewBox="0 0 48 48" version="1.1" xmlns="http://www.w3.org/2000/svg" xmlns:xlink="http://www.w3.org/1999/xlink">
  <g stroke="none" stroke-width="1" fill="none" fill-rule="evenodd">
    <path d="M44.1871059,25.133 C42.2546698,25.6 40.2882436,26.066 38.3558075,26.533 C30.7910149,28.366 13.7299935,32.4 13.7299935,32.4 C11.5306353,32.567 2.20035792,30.433 3.49997868,30.133 C4.99954109,29.766 16.96305,26.466 21.4947277,25.3 L11.7305769,17.667 L13.5630422,16 L29.0585205,23.733 C33.7901398,22.6 38.5557491,21.433 43.2873684,20.3 C44.5869892,20 47.7190752,20.367 47.9859973,21.633 C48.2189293,22.966 45.4867266,24.8 44.1871059,25.133 L44.1871059,25.133 Z M1.39959159,24.067 L0,25.134 L3.06610529,29.401 L8.13162713,28.068 L1.4005913,24.068 L1.39959159,24.067 Z" id="Return" fill="#55637C" fill-rule="nonzero" transform="translate(24.000000, 24.204649) scale(-1, 1) translate(-24.000000, -24.204649) "></path>
  </g>
</svg>
